<svg version="1.1" xmlns="http://www.w3.org/2000/svg" xmlns:xlink="http://www.w3.org/1999/xlink" x="0px" y="0px" viewBox="0 0 800 800" xml:space="preserve" max-width="500" min-width="300" width="500px">
<style type="text/css">
	.st0{fill:none;stroke:#000000;stroke-width:2;stroke-miterlimit:10;}
	.st1{fill:#B8F434;}
	.st2{fill:none;stroke:#231F20;stroke-miterlimit:10;}
	.st3{fill:#F9D84B;}
	.st4{fill:none;}
	.st5{fill:#5BF4DE;}
	.st6{fill:#FFFFFF;}
	.st7{fill:#003A6D;}
</style>
  <g id="ESCENARIO">
    <rect x="282.7" y="9.5" width="216.5" height="97.2"></rect>
    <g>
      <g>
        <path class="st6" d="M313.5,68V48.1h14.8v3.4h-10.7v4.4h10v3.4h-10v5.4h11.1V68H313.5z"></path>
        <path class="st6" d="M331.1,61.6l3.9-0.4c0.2,1.3,0.7,2.3,1.4,2.9c0.7,0.6,1.7,0.9,2.9,0.9c1.3,0,2.3-0.3,2.9-0.8
          c0.7-0.5,1-1.2,1-1.9c0-0.5-0.1-0.9-0.4-1.2s-0.8-0.6-1.4-0.9c-0.5-0.2-1.5-0.5-3.2-0.9c-2.2-0.5-3.7-1.2-4.5-2
          c-1.2-1.1-1.8-2.4-1.8-4c0-1,0.3-2,0.9-2.8c0.6-0.9,1.4-1.6,2.5-2c1.1-0.5,2.4-0.7,3.9-0.7c2.5,0,4.4,0.5,5.6,1.6
          c1.3,1.1,1.9,2.6,2,4.4l-4,0.2c-0.2-1-0.5-1.8-1.1-2.2s-1.4-0.7-2.5-0.7c-1.2,0-2.1,0.2-2.7,0.7c-0.4,0.3-0.6,0.7-0.6,1.2
          s0.2,0.9,0.6,1.2c0.5,0.4,1.7,0.9,3.7,1.3c2,0.5,3.4,0.9,4.3,1.4s1.7,1.2,2.2,2c0.5,0.9,0.8,1.9,0.8,3.2c0,1.1-0.3,2.2-1,3.2
          c-0.6,1-1.5,1.7-2.7,2.2s-2.6,0.7-4.3,0.7c-2.5,0-4.5-0.6-5.8-1.7C332.1,65.5,331.3,63.8,331.1,61.6z"></path>
        <path class="st6" d="M363.4,60.7l3.9,1.2c-0.6,2.2-1.6,3.8-3,4.8c-1.4,1.1-3.2,1.6-5.3,1.6c-2.6,0-4.8-0.9-6.5-2.7
          c-1.7-1.8-2.6-4.3-2.6-7.4c0-3.3,0.9-5.9,2.6-7.7s4-2.8,6.8-2.8c2.4,0,4.4,0.7,5.9,2.2c0.9,0.9,1.6,2.1,2,3.7l-4,1
          c-0.2-1-0.7-1.8-1.5-2.4c-0.7-0.6-1.7-0.9-2.7-0.9c-1.5,0-2.7,0.5-3.6,1.6S354,55.7,354,58c0,2.5,0.5,4.3,1.4,5.4
          c0.9,1.1,2.1,1.6,3.5,1.6c1.1,0,2-0.3,2.8-1C362.5,63.2,363,62.2,363.4,60.7z"></path>
        <path class="st6" d="M370.7,68V48.1h14.8v3.4h-10.7v4.4h10v3.4h-10v5.4h11.1V68H370.7z"></path>
        <path class="st6" d="M389.3,68V48.1h3.9l8.2,13.3V48.1h3.7V68h-4l-8-13v13H389.3z"></path>
        <path class="st6" d="M427.4,68H423l-1.7-4.5h-8l-1.6,4.5h-4.3l7.8-19.9h4.3L427.4,68z M419.9,60.2l-2.7-7.4l-2.7,7.4H419.9z"></path>
        <path class="st6" d="M429.5,68V48.1h8.5c2.1,0,3.7,0.2,4.6,0.5c1,0.4,1.7,1,2.3,1.9c0.6,0.9,0.9,2,0.9,3.1c0,1.5-0.4,2.7-1.3,3.7
          s-2.2,1.6-3.9,1.8c0.9,0.5,1.6,1.1,2.2,1.7c0.6,0.6,1.3,1.7,2.3,3.2l2.4,3.9h-4.8l-2.9-4.3c-1-1.5-1.7-2.5-2.1-2.9
          s-0.8-0.7-1.2-0.8c-0.4-0.1-1.1-0.2-2-0.2h-0.8V68H429.5z M433.5,56.5h3c1.9,0,3.1-0.1,3.6-0.2c0.5-0.2,0.9-0.4,1.1-0.8
          c0.3-0.4,0.4-0.9,0.4-1.5c0-0.7-0.2-1.2-0.5-1.6c-0.4-0.4-0.9-0.7-1.5-0.8c-0.3,0-1.3-0.1-2.9-0.1h-3.1v5H433.5z"></path>
        <path class="st6" d="M449.5,68V48.1h4V68H449.5z"></path>
        <path class="st6" d="M456.5,58.2c0-2,0.3-3.7,0.9-5.1c0.5-1,1.1-1.9,1.9-2.7s1.6-1.4,2.6-1.8c1.2-0.5,2.7-0.8,4.3-0.8
          c2.9,0,5.3,0.9,7,2.7c1.8,1.8,2.6,4.4,2.6,7.6c0,3.2-0.9,5.7-2.6,7.5s-4.1,2.7-7,2.7c-3,0-5.3-0.9-7.1-2.7
          C457.4,63.9,456.5,61.4,456.5,58.2z M460.6,58.1c0,2.3,0.5,4,1.6,5.1c1,1.2,2.4,1.7,4,1.7s2.9-0.6,3.9-1.7c1-1.2,1.5-2.9,1.5-5.2
          s-0.5-4-1.5-5.1s-2.3-1.7-4-1.7s-3,0.6-4,1.7C461.1,54.1,460.6,55.8,460.6,58.1z"></path>
      </g>
    </g>
  </g>
</svg>
