<svg version="1.1" xmlns="http://www.w3.org/2000/svg" xmlns:xlink="http://www.w3.org/1999/xlink" x="0px" y="0px" viewBox="0 0 800 800" max-width="500" min-width="300" width="500px">
  <style type="text/css">
    .st0{fill:none;stroke:#000000;stroke-width:2;stroke-miterlimit:10;}
    .st1{fill:#B8F434;}
    .st2{fill:none;stroke:#231F20;stroke-miterlimit:10;}
    .st3{fill:#F9D84B;}
    .st4{fill:none;}
    .st5{fill:#5BF4DE;}
    .st6{fill:#FFFFFF;}
    .st7{fill:#003A6D;}
  </style>
  <g id="INMUEBLE">
    <polyline class="st0" points="108.8,51.2 108.8,604.2 275.9,779.9 676.2,779.9 676.2,51.2"></polyline>
    <rect x="108.8" y="139.5" class="st0" width="44.6" height="132.6"></rect>
    <line class="st0" x1="153.5" y1="205.8" x2="108.8" y2="205.8"></line>
    <rect x="108.8" y="349.3" class="st0" width="44.6" height="132.6"></rect>
    <line class="st0" x1="153.5" y1="415.6" x2="108.8" y2="415.6"></line>
    <rect x="631.6" y="113.8" class="st0" width="44.6" height="132.6"></rect>
    <line class="st0" x1="676.2" y1="180.1" x2="631.6" y2="180.1"></line>
    <rect x="631.6" y="349.3" class="st0" width="44.6" height="132.6"></rect>
    <line class="st0" x1="676.2" y1="415.6" x2="631.6" y2="415.6"></line>
    <rect x="108.8" y="528.4" class="st0" width="48" height="65.8"></rect>
    <rect x="631.6" y="47.8" class="st0" width="44.6" height="66"></rect>
    <rect x="363.4" y="488.8" class="st0" width="54" height="54"></rect>
    <g>
      <path d="M371.3,510.9h8.5v2.1h-6.1v3.4h5.8v2.1h-5.8v5.4h-2.3v-13H371.3z"></path>
      <path d="M388.2,510.6c4.1-0.1,7,2.7,7,6.9c0,4.1-2.9,6.8-7,6.9c-4,0-6.9-2.7-6.9-6.8C381.3,513.3,384.2,510.6,388.2,510.6z M388.2,522.2c2.7,0,4.5-2.1,4.5-4.9c0-2.6-1.8-4.7-4.5-4.7s-4.5,2.1-4.5,4.7C383.7,520.2,385.5,522.2,388.2,522.2z"></path>
      <path d="M397.4,510.9h2.3v5.2h6.1v-5.2h2.3V524h-2.3v-5.8h-6.1v5.8h-2.3V510.9z"></path>
    </g>
    <line class="st0" x1="108.8" y1="349.3" x2="676.2" y2="349.3"></line>
    <line class="st0" x1="108.8" y1="528.4" x2="363.4" y2="528.4"></line>
    <line class="st0" x1="108.8" y1="515.8" x2="361.8" y2="515.8"></line>
    <line class="st0" x1="416.9" y1="528.4" x2="676.2" y2="528.4"></line>
    <line class="st0" x1="416.9" y1="515.8" x2="674.6" y2="515.8"></line>
    <line class="st0" x1="391" y1="488.1" x2="391" y2="104.8"></line>
    <rect x="371.3" y="626.5" class="st0" width="33.2" height="33.2"></rect>
  </g>
</svg>
